<?xml version="1.0" encoding="UTF-8"?>
<svg id="Layer_1" data-name="Layer 1" xmlns="http://www.w3.org/2000/svg" viewBox="0 0 35.231 33.497">
  <defs>
    <style>
      .cls-1 {
        fill: #f8f5f0;
      }
    </style>
  </defs>
  <path class="cls-1" d="M17.616,0C7.887,0,0,7.498,0,16.748s7.887,16.748,17.616,16.748,17.616-7.498,17.616-16.748S27.345,0,17.616,0ZM12.295,25.866h-4.036v-12.144l4.036.013v12.131ZM12.551,10.483c-.515,1.764-2.931,2.214-4.153.807-1.26-1.45-.124-3.629,1.819-3.66,1.574-.025,2.758,1.401,2.334,2.852ZM27.363,25.866h-4.009v-6.691c-.089-1.503-.758-2.512-2.476-2.405-1.5.094-2.134,1.291-2.17,2.589v6.507s-3.842,0-3.842,0v-12.144l3.843-.026v1.63c.758-1.074,2.061-1.884,3.442-1.971,3.12-.198,5.08,1.5,5.212,4.454v8.058Z"/>
</svg>